<svg viewBox="0 0 800 400" xmlns="http://www.w3.org/2000/svg" role="img" aria-label="海外AI订阅学生优惠与教育认证指南封面图">
  <defs>
    <linearGradient id="bgGrad" x1="0" y1="0" x2="800" y2="400" gradientUnits="userSpaceOnUse">
      <stop offset="0" stop-color="#141a30"/>
      <stop offset="1" stop-color="#1c2747"/>
    </linearGradient>
    <radialGradient id="glow" cx="680" cy="70" r="260" gradientUnits="userSpaceOnUse">
      <stop offset="0" stop-color="#5b6bf5" stop-opacity="0.35"/>
      <stop offset="1" stop-color="#5b6bf5" stop-opacity="0"/>
    </radialGradient>
  </defs>
  <rect width="800" height="400" fill="url(#bgGrad)"/>
  <rect width="800" height="400" fill="url(#glow)"/>
  <g stroke="#4a5a9a" stroke-width="1.4" opacity="0.55" fill="none">
    <path d="M40 40 h90 v50 h60"/>
    <path d="M760 60 h-70 v40 h-50 v60"/>
    <path d="M60 360 h80 v-45 h55"/>
    <path d="M740 340 h-95 v-40 h-45"/>
    <path d="M420 30 v35 h60 v40"/>
  </g>
  <g fill="#7d8bf0">
    <circle cx="40" cy="40" r="3.5"/>
    <circle cx="130" cy="40" r="3.5"/>
    <circle cx="190" cy="90" r="3.5"/>
    <circle cx="760" cy="60" r="3.5"/>
    <circle cx="690" cy="100" r="3.5"/>
    <circle cx="640" cy="160" r="3.5"/>
    <circle cx="60" cy="360" r="3.5"/>
    <circle cx="140" cy="360" r="3.5"/>
    <circle cx="195" cy="315" r="3.5"/>
    <circle cx="740" cy="340" r="3.5"/>
    <circle cx="645" cy="300" r="3.5"/>
    <circle cx="420" cy="30" r="3.5"/>
    <circle cx="480" cy="65" r="3.5"/>
    <circle cx="480" cy="105" r="3.5"/>
  </g>
  <rect x="64" y="70" width="96" height="96" rx="22" fill="#232d54" stroke="#7d8bf0" stroke-width="2.5"/>
  <g stroke="#a6b1f7" stroke-width="3" stroke-linecap="round">
    <path d="M112 96 v-10 M112 148 v10 M86 122 h-10 M138 122 h10 M94 104 l-7-7 M137 104 l7-7 M94 140 l-7 7 M137 140 l7 7"/>
  </g>
  <rect x="94" y="102" width="36" height="36" rx="6" fill="none" stroke="#e6e9ff" stroke-width="3"/>
  <circle cx="112" cy="120" r="7" fill="#7d8bf0"/>
  <text x="64" y="258" font-family="-apple-system, 'Segoe UI', 'PingFang SC', 'Microsoft YaHei', sans-serif" font-size="54" font-weight="700" fill="#f2f3ff">学生优惠</text>
  <text x="66" y="300" font-family="-apple-system, 'Segoe UI', 'PingFang SC', 'Microsoft YaHei', sans-serif" font-size="18" font-weight="600" letter-spacing="3" fill="#8d9af2">STUDENT &amp; EDU VERIFICATION</text>
  <text x="736" y="366" text-anchor="end" font-family="-apple-system, 'Segoe UI', 'PingFang SC', 'Microsoft YaHei', sans-serif" font-size="16" font-weight="700" fill="#8d9af2" opacity="0.85">海外AI订阅指南</text>
</svg>
