<svg viewBox="0 0 800 400" xmlns="http://www.w3.org/2000/svg" role="img" aria-label="Stablecoin payment troubleshooting guide for AI subscriptions cover">
  <defs>
    <linearGradient id="bgGrad19e" x1="0" y1="0" x2="800" y2="400" gradientUnits="userSpaceOnUse">
      <stop offset="0" stop-color="#2a1c10"/>
      <stop offset="1" stop-color="#3d2814"/>
    </linearGradient>
    <radialGradient id="glow19e" cx="680" cy="70" r="260" gradientUnits="userSpaceOnUse">
      <stop offset="0" stop-color="#f0a050" stop-opacity="0.35"/>
      <stop offset="1" stop-color="#f0a050" stop-opacity="0"/>
    </radialGradient>
  </defs>
  <rect width="800" height="400" fill="url(#bgGrad19e)"/>
  <rect width="800" height="400" fill="url(#glow19e)"/>
  <g stroke="#7a5230" stroke-width="1.4" opacity="0.55" fill="none">
    <path d="M40 40 h90 v50 h60"/>
    <path d="M60 360 h80 v-45 h55"/>
  </g>
  <g fill="#f0c088">
    <circle cx="40" cy="40" r="3.5"/>
    <circle cx="130" cy="40" r="3.5"/>
    <circle cx="190" cy="90" r="3.5"/>
    <circle cx="60" cy="360" r="3.5"/>
    <circle cx="140" cy="360" r="3.5"/>
    <circle cx="195" cy="315" r="3.5"/>
  </g>
  <rect x="64" y="70" width="96" height="96" rx="22" fill="#3f2a16" stroke="#f0c088" stroke-width="2.5"/>
  <circle cx="112" cy="118" r="24" fill="none" stroke="#fbe6cc" stroke-width="3.2"/>
  <path d="M112 104 v16 l12 8" fill="none" stroke="#fbe6cc" stroke-width="3.2" stroke-linecap="round" stroke-linejoin="round"/>
  <text x="64" y="248" font-family="-apple-system, 'Segoe UI', sans-serif" font-size="36" font-weight="700" fill="#fbeee0">Payment Stuck?</text>
  <text x="66" y="282" font-family="-apple-system, 'Segoe UI', sans-serif" font-size="16" font-weight="600" letter-spacing="2" fill="#f0c088">PAYMENT TROUBLESHOOTING</text>
  <text x="736" y="366" text-anchor="end" font-family="-apple-system, 'Segoe UI', sans-serif" font-size="16" font-weight="700" fill="#f0c088" opacity="0.85">AI Access Guide</text>

  <path d="M742 44 l24 42 h-48 z" fill="#3f2a16" stroke="#f0a050" stroke-width="2.5" stroke-linejoin="round"/>
  <line x1="742" y1="62" x2="742" y2="74" stroke="#f0c088" stroke-width="3" stroke-linecap="round"/>
  <circle cx="742" cy="82" r="1.6" fill="#f0c088"/>

  <rect x="470" y="146" width="260" height="140" rx="14" fill="#1f150c" stroke="#4a3320" stroke-width="1.5"/>
  <circle cx="492" cy="172" r="5.5" fill="#f0a050"/>
  <text x="506" y="177" font-family="-apple-system, 'Segoe UI', sans-serif" font-size="13" font-weight="700" fill="#f5d9b8">Status · Pending</text>
  <line x1="486" y1="190" x2="708" y2="190" stroke="#3a2716" stroke-width="1"/>
  <text x="486" y="212" font-family="'SFMono-Regular', Consolas, monospace" font-size="12" fill="#c99a68">Tx 0x8f3a…c21d</text>
  <rect x="486" y="224" width="222" height="7" rx="3.5" fill="#3a2716"/>
  <rect x="486" y="224" width="115" height="7" rx="3.5" fill="#f0a050"/>
  <text x="486" y="252" font-family="-apple-system, 'Segoe UI', sans-serif" font-size="12" font-weight="600" fill="#f5c199">⚠ Not yet recognized</text>
</svg>
