<svg viewBox="0 0 800 400" xmlns="http://www.w3.org/2000/svg" role="img" aria-label="AI视频生成要花多少钱Runway与LumaAI计费对比封面图">
  <defs>
    <linearGradient id="bgGradAivb" x1="0" y1="0" x2="800" y2="400" gradientUnits="userSpaceOnUse">
      <stop offset="0" stop-color="#200a0a"/>
      <stop offset="1" stop-color="#4a1414"/>
    </linearGradient>
    <radialGradient id="glowAivb" cx="680" cy="70" r="260" gradientUnits="userSpaceOnUse">
      <stop offset="0" stop-color="#ff7a7a" stop-opacity="0.35"/>
      <stop offset="1" stop-color="#ff7a7a" stop-opacity="0"/>
    </radialGradient>
  </defs>
  <rect width="800" height="400" fill="url(#bgGradAivb)"/>
  <rect width="800" height="400" fill="url(#glowAivb)"/>
  <g stroke="#5c1e1e" stroke-width="1.4" opacity="0.55" fill="none">
    <path d="M40 40 h90 v50 h60"/>
    <path d="M60 360 h80 v-45 h55"/>
  </g>
  <g fill="#ffb3b3">
    <circle cx="40" cy="40" r="3.5"/>
    <circle cx="130" cy="40" r="3.5"/>
    <circle cx="190" cy="90" r="3.5"/>
    <circle cx="60" cy="360" r="3.5"/>
    <circle cx="140" cy="360" r="3.5"/>
    <circle cx="195" cy="315" r="3.5"/>
  </g>

  <rect x="64" y="70" width="96" height="96" rx="22" fill="#3a1414" stroke="#ffb3b3" stroke-width="2.5"/>
  <rect x="82" y="94" width="60" height="44" rx="6" fill="none" stroke="#ffd9d9" stroke-width="3"/>
  <circle cx="88" cy="100" r="2" fill="#ffd9d9"/>
  <circle cx="136" cy="100" r="2" fill="#ffd9d9"/>
  <circle cx="88" cy="132" r="2" fill="#ffd9d9"/>
  <circle cx="136" cy="132" r="2" fill="#ffd9d9"/>
  <path d="M104 106 l18 10 -18 10 z" fill="#ff7a7a"/>

  <text x="64" y="230" font-family="-apple-system, 'Segoe UI', 'PingFang SC', 'Microsoft YaHei', sans-serif" font-size="40" font-weight="700" fill="#ffe8e8">AI 视频生成</text>
  <text x="64" y="278" font-family="-apple-system, 'Segoe UI', 'PingFang SC', 'Microsoft YaHei', sans-serif" font-size="40" font-weight="700" fill="#ffe8e8">怎么计费</text>
  <text x="66" y="308" font-family="-apple-system, 'Segoe UI', 'PingFang SC', 'Microsoft YaHei', sans-serif" font-size="17" font-weight="600" letter-spacing="2" fill="#ffb3b3">RUNWAY &#183; LUMA &#183; CREDITS</text>
  <text x="736" y="366" text-anchor="end" font-family="-apple-system, 'Segoe UI', 'PingFang SC', 'Microsoft YaHei', sans-serif" font-size="16" font-weight="700" fill="#ffb3b3" opacity="0.85">AI服务指南</text>

  <rect x="420" y="70" width="330" height="230" rx="16" fill="#3a1414" stroke="#5c1e1e" stroke-width="1.5"/>
  <circle cx="446" cy="100" r="6" fill="#ffb3b3"/>
  <text x="462" y="105" font-family="-apple-system, 'Segoe UI', 'PingFang SC', 'Microsoft YaHei', sans-serif" font-size="14" font-weight="700" fill="#ffe8e8">计费方式对比</text>
  <line x1="440" y1="122" x2="730" y2="122" stroke="#5c1e1e" stroke-width="1"/>

  <text x="440" y="150" font-family="-apple-system, 'Segoe UI', 'PingFang SC', 'Microsoft YaHei', sans-serif" font-size="13" fill="#f5c9c9">Runway</text>
  <text x="730" y="150" text-anchor="end" font-family="-apple-system, 'Segoe UI', 'PingFang SC', 'Microsoft YaHei', sans-serif" font-size="13" font-weight="700" fill="#ffb3b3">按秒计费+套餐额度</text>

  <text x="440" y="180" font-family="-apple-system, 'Segoe UI', 'PingFang SC', 'Microsoft YaHei', sans-serif" font-size="13" fill="#f5c9c9">Luma AI</text>
  <text x="730" y="180" text-anchor="end" font-family="-apple-system, 'Segoe UI', 'PingFang SC', 'Microsoft YaHei', sans-serif" font-size="13" font-weight="700" fill="#ffb3b3">订阅+积分制</text>

  <line x1="440" y1="198" x2="730" y2="198" stroke="#5c1e1e" stroke-width="1"/>
  <text x="440" y="220" font-family="-apple-system, 'Segoe UI', 'PingFang SC', 'Microsoft YaHei', sans-serif" font-size="13" font-weight="700" fill="#ffe8e8">共同点</text>
  <text x="730" y="220" text-anchor="end" font-family="-apple-system, 'Segoe UI', 'PingFang SC', 'Microsoft YaHei', sans-serif" font-size="13" font-weight="700" fill="#ffb3b3">虚拟卡/稳定币均可付</text>

  <rect x="440" y="238" width="290" height="44" rx="10" fill="#200a0a" stroke="#5c1e1e" stroke-width="1"/>
  <text x="454" y="265" font-family="-apple-system, 'Segoe UI', 'PingFang SC', 'Microsoft YaHei', sans-serif" font-size="13" font-weight="600" fill="#ffe0e0">&#10003; 按用量付费，不必为空闲时段买单</text>
</svg>
