<svg viewBox="0 0 800 400" xmlns="http://www.w3.org/2000/svg" role="img" aria-label="国内AI大模型订阅指南文心一言通义千问Kimi豆包怎么开通封面图">
  <defs>
    <linearGradient id="bgGrad28" x1="0" y1="0" x2="800" y2="400" gradientUnits="userSpaceOnUse">
      <stop offset="0" stop-color="#150f2b"/>
      <stop offset="1" stop-color="#2a1f4d"/>
    </linearGradient>
    <radialGradient id="glow28" cx="680" cy="70" r="260" gradientUnits="userSpaceOnUse">
      <stop offset="0" stop-color="#8f6fe0" stop-opacity="0.35"/>
      <stop offset="1" stop-color="#8f6fe0" stop-opacity="0"/>
    </radialGradient>
  </defs>
  <rect width="800" height="400" fill="url(#bgGrad28)"/>
  <rect width="800" height="400" fill="url(#glow28)"/>
  <g stroke="#4a3d75" stroke-width="1.4" opacity="0.55" fill="none">
    <path d="M40 40 h90 v50 h60"/>
    <path d="M60 360 h80 v-45 h55"/>
  </g>
  <g fill="#bea8f0">
    <circle cx="40" cy="40" r="3.5"/>
    <circle cx="130" cy="40" r="3.5"/>
    <circle cx="190" cy="90" r="3.5"/>
    <circle cx="60" cy="360" r="3.5"/>
    <circle cx="140" cy="360" r="3.5"/>
    <circle cx="195" cy="315" r="3.5"/>
  </g>
  <rect x="64" y="70" width="96" height="96" rx="22" fill="#211640" stroke="#bea8f0" stroke-width="2.5"/>
  <path d="M86 100 h56 a10 10 0 0 1 10 10 v22 a10 10 0 0 1 -10 10 h-30 l-14 14 v-14 h-12 a10 10 0 0 1 -10 -10 v-22 a10 10 0 0 1 10 -10 Z" fill="none" stroke="#8f6fe0" stroke-width="4"/>
  <circle cx="100" cy="125" r="3" fill="#e8e2fc"/>
  <circle cx="112" cy="125" r="3" fill="#e8e2fc"/>
  <circle cx="124" cy="125" r="3" fill="#e8e2fc"/>
  <text x="64" y="248" font-family="-apple-system, 'Segoe UI', 'PingFang SC', 'Microsoft YaHei', sans-serif" font-size="44" font-weight="700" fill="#e8e2fc">国内AI怎么订</text>
  <text x="66" y="286" font-family="-apple-system, 'Segoe UI', 'PingFang SC', 'Microsoft YaHei', sans-serif" font-size="17" font-weight="600" letter-spacing="2" fill="#bea8f0">DOMESTIC AI</text>
  <text x="736" y="366" text-anchor="end" font-family="-apple-system, 'Segoe UI', 'PingFang SC', 'Microsoft YaHei', sans-serif" font-size="16" font-weight="700" fill="#bea8f0" opacity="0.85">AI服务指南</text>

  <rect x="420" y="70" width="330" height="230" rx="16" fill="#211640" stroke="#4a3d75" stroke-width="1.5"/>
  <circle cx="446" cy="100" r="6" fill="#bea8f0"/>
  <text x="462" y="105" font-family="-apple-system, 'Segoe UI', 'PingFang SC', 'Microsoft YaHei', sans-serif" font-size="14" font-weight="700" fill="#e8e2fc">订阅路径对比</text>
  <line x1="440" y1="122" x2="730" y2="122" stroke="#382d5c" stroke-width="1"/>

  <text x="440" y="150" font-family="-apple-system, 'Segoe UI', 'PingFang SC', 'Microsoft YaHei', sans-serif" font-size="13" fill="#d8cef5">海外 AI</text>
  <text x="730" y="150" text-anchor="end" font-family="-apple-system, 'Segoe UI', 'PingFang SC', 'Microsoft YaHei', sans-serif" font-size="13" font-weight="700" fill="#bea8f0">需要虚拟卡</text>

  <text x="440" y="180" font-family="-apple-system, 'Segoe UI', 'PingFang SC', 'Microsoft YaHei', sans-serif" font-size="13" fill="#d8cef5">国内 AI</text>
  <text x="730" y="180" text-anchor="end" font-family="-apple-system, 'Segoe UI', 'PingFang SC', 'Microsoft YaHei', sans-serif" font-size="13" font-weight="700" fill="#bea8f0">支付宝/微信直付</text>

  <line x1="440" y1="198" x2="730" y2="198" stroke="#382d5c" stroke-width="1"/>
  <text x="440" y="220" font-family="-apple-system, 'Segoe UI', 'PingFang SC', 'Microsoft YaHei', sans-serif" font-size="13" font-weight="700" fill="#e8e2fc">共同点</text>
  <text x="730" y="220" text-anchor="end" font-family="-apple-system, 'Segoe UI', 'PingFang SC', 'Microsoft YaHei', sans-serif" font-size="13" font-weight="700" fill="#bea8f0">按需搭配使用</text>

  <rect x="440" y="238" width="290" height="44" rx="10" fill="#150f2b" stroke="#4a3d75" stroke-width="1"/>
  <text x="454" y="265" font-family="-apple-system, 'Segoe UI', 'PingFang SC', 'Microsoft YaHei', sans-serif" font-size="13" font-weight="600" fill="#e8def8">✓ 手机号一键开通，无跨境门槛</text>
</svg>
