<svg viewBox="0 0 800 400" xmlns="http://www.w3.org/2000/svg" role="img" aria-label="海外AI订阅家庭共享套餐指南封面图">
  <defs>
    <linearGradient id="bgGrad5" x1="0" y1="0" x2="800" y2="400" gradientUnits="userSpaceOnUse">
      <stop offset="0" stop-color="#221a14"/>
      <stop offset="1" stop-color="#33251a"/>
    </linearGradient>
    <radialGradient id="glow5" cx="680" cy="70" r="260" gradientUnits="userSpaceOnUse">
      <stop offset="0" stop-color="#d99a63" stop-opacity="0.35"/>
      <stop offset="1" stop-color="#d99a63" stop-opacity="0"/>
    </radialGradient>
  </defs>
  <rect width="800" height="400" fill="url(#bgGrad5)"/>
  <rect width="800" height="400" fill="url(#glow5)"/>
  <g stroke="#7a5b3f" stroke-width="1.4" opacity="0.55" fill="none">
    <path d="M40 40 h90 v50 h60"/>
    <path d="M60 360 h80 v-45 h55"/>
  </g>
  <g fill="#e3b483">
    <circle cx="40" cy="40" r="3.5"/>
    <circle cx="130" cy="40" r="3.5"/>
    <circle cx="190" cy="90" r="3.5"/>
    <circle cx="60" cy="360" r="3.5"/>
    <circle cx="140" cy="360" r="3.5"/>
    <circle cx="195" cy="315" r="3.5"/>
  </g>
  <rect x="64" y="70" width="96" height="96" rx="22" fill="#3a2b1e" stroke="#e3b483" stroke-width="2.5"/>
  <g fill="none" stroke="#f1d5b0" stroke-width="3" stroke-linecap="round" stroke-linejoin="round">
    <circle cx="100" cy="103" r="9"/>
    <circle cx="126" cy="107" r="7"/>
    <path d="M84 138 a16 16 0 0 1 32 0"/>
    <path d="M118 140 a13 13 0 0 1 26 0"/>
  </g>
  <text x="64" y="258" font-family="-apple-system, 'Segoe UI', 'PingFang SC', 'Microsoft YaHei', sans-serif" font-size="54" font-weight="700" fill="#f6ead9">家庭共享</text>
  <text x="66" y="300" font-family="-apple-system, 'Segoe UI', 'PingFang SC', 'Microsoft YaHei', sans-serif" font-size="18" font-weight="600" letter-spacing="3" fill="#e3b483">FAMILY &amp; SHARED PLANS</text>
  <text x="736" y="366" text-anchor="end" font-family="-apple-system, 'Segoe UI', 'PingFang SC', 'Microsoft YaHei', sans-serif" font-size="16" font-weight="700" fill="#e3b483" opacity="0.85">AI订阅指南</text>

  <rect x="420" y="70" width="330" height="230" rx="16" fill="#3a2b1e" stroke="#7a5b3f" stroke-width="1.5"/>
  <circle cx="446" cy="100" r="6" fill="#d99a63"/>
  <text x="462" y="105" font-family="-apple-system, 'Segoe UI', 'PingFang SC', 'Microsoft YaHei', sans-serif" font-size="14" font-weight="700" fill="#f6ead9">家庭成员 · 3 / 6 席位</text>
  <line x1="440" y1="122" x2="730" y2="122" stroke="#4a3624" stroke-width="1"/>

  <circle cx="454" cy="149" r="11" fill="#4a3624" stroke="#e3b483" stroke-width="1.2"/>
  <text x="474" y="153" font-family="-apple-system, 'Segoe UI', 'PingFang SC', 'Microsoft YaHei', sans-serif" font-size="13" fill="#f6ead9">成员 A</text>
  <rect x="650" y="139" width="70" height="22" rx="11" fill="#4a3624"/>
  <text x="685" y="154" text-anchor="middle" font-family="-apple-system, 'Segoe UI', 'PingFang SC', 'Microsoft YaHei', sans-serif" font-size="11" font-weight="700" fill="#f1d5b0">Owner</text>

  <circle cx="454" cy="189" r="11" fill="#4a3624" stroke="#e3b483" stroke-width="1.2"/>
  <text x="474" y="193" font-family="-apple-system, 'Segoe UI', 'PingFang SC', 'Microsoft YaHei', sans-serif" font-size="13" fill="#f6ead9">成员 B</text>
  <rect x="650" y="179" width="70" height="22" rx="11" fill="#38492e"/>
  <text x="685" y="194" text-anchor="middle" font-family="-apple-system, 'Segoe UI', 'PingFang SC', 'Microsoft YaHei', sans-serif" font-size="11" font-weight="700" fill="#c7e0a8">已加入</text>

  <rect x="440" y="220" width="290" height="40" rx="10" fill="none" stroke="#7a5b3f" stroke-width="1.4" stroke-dasharray="5 4"/>
  <text x="585" y="245" text-anchor="middle" font-family="-apple-system, 'Segoe UI', 'PingFang SC', 'Microsoft YaHei', sans-serif" font-size="13" fill="#e3b483">+ 邀请新成员</text>
</svg>
