<svg viewBox="0 0 800 400" xmlns="http://www.w3.org/2000/svg" role="img" aria-label="Tool evaluation guide for overseas AI subscriptions cover">
  <defs>
    <linearGradient id="bgGrad11en" x1="0" y1="0" x2="800" y2="400" gradientUnits="userSpaceOnUse">
      <stop offset="0" stop-color="#131a2e"/>
      <stop offset="1" stop-color="#1c2745"/>
    </linearGradient>
    <radialGradient id="glow11en" cx="680" cy="70" r="260" gradientUnits="userSpaceOnUse">
      <stop offset="0" stop-color="#6f96e8" stop-opacity="0.35"/>
      <stop offset="1" stop-color="#6f96e8" stop-opacity="0"/>
    </radialGradient>
  </defs>
  <rect width="800" height="400" fill="url(#bgGrad11en)"/>
  <rect width="800" height="400" fill="url(#glow11en)"/>
  <g stroke="#3d4a72" stroke-width="1.4" opacity="0.55" fill="none">
    <path d="M40 40 h90 v50 h60"/>
    <path d="M60 360 h80 v-45 h55"/>
  </g>
  <g fill="#9fb4e8">
    <circle cx="40" cy="40" r="3.5"/>
    <circle cx="130" cy="40" r="3.5"/>
    <circle cx="190" cy="90" r="3.5"/>
    <circle cx="60" cy="360" r="3.5"/>
    <circle cx="140" cy="360" r="3.5"/>
    <circle cx="195" cy="315" r="3.5"/>
  </g>
  <rect x="64" y="70" width="96" height="96" rx="22" fill="#20294a" stroke="#9fb4e8" stroke-width="2.5"/>
  <circle cx="106" cy="108" r="17" fill="none" stroke="#e2e9fa" stroke-width="3.2"/>
  <line x1="118" y1="120" x2="134" y2="136" stroke="#9fb4e8" stroke-width="4" stroke-linecap="round"/>
  <path d="M99 108 l5 5 l9 -11" fill="none" stroke="#9fb4e8" stroke-width="2.6" stroke-linecap="round" stroke-linejoin="round"/>
  <text x="64" y="258" font-family="-apple-system, 'Segoe UI', sans-serif" font-size="46" font-weight="700" fill="#eaeffb">Tool Picks</text>
  <text x="66" y="300" font-family="-apple-system, 'Segoe UI', sans-serif" font-size="18" font-weight="600" letter-spacing="3" fill="#9fb4e8">TOOL EVALUATION GUIDE</text>
  <text x="736" y="366" text-anchor="end" font-family="-apple-system, 'Segoe UI', sans-serif" font-size="16" font-weight="700" fill="#9fb4e8" opacity="0.85">AI Access Guide</text>

  <rect x="420" y="70" width="330" height="230" rx="16" fill="#20294a" stroke="#3d4a72" stroke-width="1.5"/>
  <circle cx="446" cy="100" r="6" fill="#6f96e8"/>
  <text x="462" y="105" font-family="-apple-system, 'Segoe UI', sans-serif" font-size="14" font-weight="700" fill="#eaeffb">Scorecard · Compared</text>
  <line x1="440" y1="122" x2="730" y2="122" stroke="#2c3660" stroke-width="1"/>

  <text x="440" y="149" font-family="-apple-system, 'Segoe UI', sans-serif" font-size="13" fill="#c7d3f5">Payment support</text>
  <g fill="#6f96e8">
    <circle cx="642" cy="145" r="5"/><circle cx="660" cy="145" r="5"/><circle cx="678" cy="145" r="5"/><circle cx="696" cy="145" r="5"/><circle cx="714" cy="145" r="5"/>
  </g>

  <text x="440" y="184" font-family="-apple-system, 'Segoe UI', sans-serif" font-size="13" fill="#c7d3f5">Network checks</text>
  <g>
    <circle cx="642" cy="180" r="5" fill="#6f96e8"/><circle cx="660" cy="180" r="5" fill="#6f96e8"/><circle cx="678" cy="180" r="5" fill="#6f96e8"/><circle cx="696" cy="180" r="5" fill="#6f96e8"/><circle cx="714" cy="180" r="5" fill="#3d4a72"/>
  </g>

  <text x="440" y="219" font-family="-apple-system, 'Segoe UI', sans-serif" font-size="13" fill="#c7d3f5">Account security</text>
  <g fill="#6f96e8">
    <circle cx="642" cy="215" r="5"/><circle cx="660" cy="215" r="5"/><circle cx="678" cy="215" r="5"/><circle cx="696" cy="215" r="5"/><circle cx="714" cy="215" r="5"/>
  </g>

  <rect x="440" y="238" width="290" height="42" rx="10" fill="#161d38" stroke="#3d4a72" stroke-width="1"/>
  <text x="454" y="264" font-family="-apple-system, 'Segoe UI', sans-serif" font-size="13" font-weight="600" fill="#c7d3f5">Overall score 4.7 / 5</text>
</svg>
