<svg viewBox="0 0 800 400" xmlns="http://www.w3.org/2000/svg" role="img" aria-label="海外AI订阅包年与包月怎么选封面图">
  <defs>
    <linearGradient id="bgGrad21" x1="0" y1="0" x2="800" y2="400" gradientUnits="userSpaceOnUse">
      <stop offset="0" stop-color="#101a2e"/>
      <stop offset="1" stop-color="#1c2c4a"/>
    </linearGradient>
    <radialGradient id="glow21" cx="680" cy="70" r="260" gradientUnits="userSpaceOnUse">
      <stop offset="0" stop-color="#5b8def" stop-opacity="0.35"/>
      <stop offset="1" stop-color="#5b8def" stop-opacity="0"/>
    </radialGradient>
  </defs>
  <rect width="800" height="400" fill="url(#bgGrad21)"/>
  <rect width="800" height="400" fill="url(#glow21)"/>
  <g stroke="#33456b" stroke-width="1.4" opacity="0.55" fill="none">
    <path d="M40 40 h90 v50 h60"/>
    <path d="M60 360 h80 v-45 h55"/>
  </g>
  <g fill="#a8c4f0">
    <circle cx="40" cy="40" r="3.5"/>
    <circle cx="130" cy="40" r="3.5"/>
    <circle cx="190" cy="90" r="3.5"/>
    <circle cx="60" cy="360" r="3.5"/>
    <circle cx="140" cy="360" r="3.5"/>
    <circle cx="195" cy="315" r="3.5"/>
  </g>
  <rect x="64" y="70" width="96" height="96" rx="22" fill="#20304f" stroke="#a8c4f0" stroke-width="2.5"/>
  <rect x="96" y="94" width="32" height="42" rx="4" fill="none" stroke="#eef4ff" stroke-width="3"/>
  <path d="M103 106 h18 M103 114 h18 M103 122 h11" stroke="#a8c4f0" stroke-width="2.5" stroke-linecap="round"/>
  <path d="M100 143 l6 6 l12 -14" fill="none" stroke="#5b8def" stroke-width="3.5" stroke-linecap="round" stroke-linejoin="round"/>
  <text x="64" y="258" font-family="-apple-system, 'Segoe UI', 'PingFang SC', 'Microsoft YaHei', sans-serif" font-size="54" font-weight="700" fill="#eef4ff">包年包月</text>
  <text x="66" y="300" font-family="-apple-system, 'Segoe UI', 'PingFang SC', 'Microsoft YaHei', sans-serif" font-size="18" font-weight="600" letter-spacing="3" fill="#a8c4f0">ANNUAL VS MONTHLY</text>
  <text x="736" y="366" text-anchor="end" font-family="-apple-system, 'Segoe UI', 'PingFang SC', 'Microsoft YaHei', sans-serif" font-size="16" font-weight="700" fill="#a8c4f0" opacity="0.85">AI服务指南</text>

  <rect x="420" y="70" width="330" height="230" rx="16" fill="#20304f" stroke="#33456b" stroke-width="1.5"/>
  <circle cx="446" cy="100" r="6" fill="#5b8def"/>
  <text x="462" y="105" font-family="-apple-system, 'Segoe UI', 'PingFang SC', 'Microsoft YaHei', sans-serif" font-size="14" font-weight="700" fill="#eef4ff">付费周期 · 对比</text>
  <line x1="440" y1="122" x2="730" y2="122" stroke="#2a3c5e" stroke-width="1"/>

  <text x="440" y="150" font-family="-apple-system, 'Segoe UI', 'PingFang SC', 'Microsoft YaHei', sans-serif" font-size="13" fill="#dbe7fb">包月 × 12</text>
  <text x="730" y="150" text-anchor="end" font-family="'SFMono-Regular', Consolas, monospace" font-size="13" fill="#a8c4f0">$240.00</text>

  <text x="440" y="180" font-family="-apple-system, 'Segoe UI', 'PingFang SC', 'Microsoft YaHei', sans-serif" font-size="13" fill="#dbe7fb">包年价</text>
  <text x="730" y="180" text-anchor="end" font-family="'SFMono-Regular', Consolas, monospace" font-size="13" fill="#a8c4f0">$200.00</text>

  <line x1="440" y1="198" x2="730" y2="198" stroke="#2a3c5e" stroke-width="1"/>
  <text x="440" y="220" font-family="-apple-system, 'Segoe UI', 'PingFang SC', 'Microsoft YaHei', sans-serif" font-size="13" font-weight="700" fill="#eef4ff">节省</text>
  <text x="730" y="220" text-anchor="end" font-family="'SFMono-Regular', Consolas, monospace" font-size="14" font-weight="700" fill="#dbe7fb">$40.00</text>

  <rect x="440" y="238" width="290" height="44" rx="10" fill="#1a2740" stroke="#33456b" stroke-width="1"/>
  <text x="454" y="265" font-family="-apple-system, 'Segoe UI', 'PingFang SC', 'Microsoft YaHei', sans-serif" font-size="13" font-weight="600" fill="#c7d9f5">✓ 先看退款条款再锁定</text>
</svg>
