<svg viewBox="0 0 800 400" xmlns="http://www.w3.org/2000/svg" role="img" aria-label="虚拟信用卡海外AI订阅的支付方案封面图">
  <defs>
    <linearGradient id="bgGradVcs" x1="0" y1="0" x2="800" y2="400" gradientUnits="userSpaceOnUse">
      <stop offset="0" stop-color="#0a1f2e"/>
      <stop offset="1" stop-color="#123a52"/>
    </linearGradient>
    <radialGradient id="glowVcs" cx="680" cy="340" r="260" gradientUnits="userSpaceOnUse">
      <stop offset="0" stop-color="#4db3e8" stop-opacity="0.35"/>
      <stop offset="1" stop-color="#4db3e8" stop-opacity="0"/>
    </radialGradient>
  </defs>
  <rect width="800" height="400" fill="url(#bgGradVcs)"/>
  <rect width="800" height="400" fill="url(#glowVcs)"/>
  <g stroke="#1f5878" stroke-width="1.4" opacity="0.55" fill="none">
    <path d="M40 40 h90 v50 h60"/>
    <path d="M60 360 h80 v-45 h55"/>
  </g>
  <g fill="#8ed0f5">
    <circle cx="40" cy="40" r="3.5"/>
    <circle cx="130" cy="40" r="3.5"/>
    <circle cx="190" cy="90" r="3.5"/>
    <circle cx="60" cy="360" r="3.5"/>
    <circle cx="140" cy="360" r="3.5"/>
    <circle cx="195" cy="315" r="3.5"/>
  </g>
  <rect x="64" y="70" width="96" height="96" rx="22" fill="#0d2c40" stroke="#8ed0f5" stroke-width="2.5"/>
  <rect x="80" y="96" width="64" height="44" rx="7" fill="none" stroke="#4db3e8" stroke-width="4"/>
  <rect x="80" y="106" width="64" height="9" fill="#4db3e8"/>
  <line x1="90" y1="130" x2="112" y2="130" stroke="#e8f4fc" stroke-width="3.5" stroke-linecap="round"/>
  <text x="64" y="248" font-family="-apple-system, 'Segoe UI', 'PingFang SC', 'Microsoft YaHei', sans-serif" font-size="42" font-weight="700" fill="#e8f4fc">虚拟卡支付方案</text>
  <text x="66" y="286" font-family="-apple-system, 'Segoe UI', 'PingFang SC', 'Microsoft YaHei', sans-serif" font-size="17" font-weight="600" letter-spacing="2" fill="#8ed0f5">PAYMENT SOLUTION</text>
  <text x="736" y="366" text-anchor="end" font-family="-apple-system, 'Segoe UI', 'PingFang SC', 'Microsoft YaHei', sans-serif" font-size="16" font-weight="700" fill="#8ed0f5" opacity="0.85">AI订阅指南</text>

  <rect x="420" y="70" width="330" height="230" rx="16" fill="#0d2c40" stroke="#1f5878" stroke-width="1.5"/>
  <circle cx="446" cy="100" r="6" fill="#8ed0f5"/>
  <text x="462" y="105" font-family="-apple-system, 'Segoe UI', 'PingFang SC', 'Microsoft YaHei', sans-serif" font-size="14" font-weight="700" fill="#e8f4fc">为什么需要独立虚拟卡</text>
  <line x1="440" y1="122" x2="730" y2="122" stroke="#204a63" stroke-width="1"/>

  <text x="440" y="150" font-family="-apple-system, 'Segoe UI', 'PingFang SC', 'Microsoft YaHei', sans-serif" font-size="13" fill="#cfe9f8">主卡直连</text>
  <text x="730" y="150" text-anchor="end" font-family="-apple-system, 'Segoe UI', 'PingFang SC', 'Microsoft YaHei', sans-serif" font-size="13" font-weight="700" fill="#8ed0f5">风控冻结整卡</text>

  <text x="440" y="180" font-family="-apple-system, 'Segoe UI', 'PingFang SC', 'Microsoft YaHei', sans-serif" font-size="13" fill="#cfe9f8">独立虚拟卡</text>
  <text x="730" y="180" text-anchor="end" font-family="-apple-system, 'Segoe UI', 'PingFang SC', 'Microsoft YaHei', sans-serif" font-size="13" font-weight="700" fill="#8ed0f5">单卡隔离风险</text>

  <line x1="440" y1="198" x2="730" y2="198" stroke="#204a63" stroke-width="1"/>
  <text x="440" y="220" font-family="-apple-system, 'Segoe UI', 'PingFang SC', 'Microsoft YaHei', sans-serif" font-size="13" font-weight="700" fill="#e8f4fc">充值方式</text>
  <text x="730" y="220" text-anchor="end" font-family="-apple-system, 'Segoe UI', 'PingFang SC', 'Microsoft YaHei', sans-serif" font-size="13" font-weight="700" fill="#8ed0f5">稳定币免开户</text>

  <rect x="440" y="238" width="290" height="44" rx="10" fill="#0a1f2e" stroke="#1f5878" stroke-width="1"/>
  <text x="454" y="265" font-family="-apple-system, 'Segoe UI', 'PingFang SC', 'Microsoft YaHei', sans-serif" font-size="13" font-weight="600" fill="#dbf0fc">✓ 一订阅一卡，额度可控可随时注销</text>
</svg>
