<svg viewBox="0 0 800 400" xmlns="http://www.w3.org/2000/svg" role="img" aria-label="Deleting AI account does not cancel subscription billing cover image">
  <defs>
    <linearGradient id="bgLEn" x1="0" y1="0" x2="400" y2="400" gradientUnits="userSpaceOnUse">
      <stop offset="0" stop-color="#241a05"/>
      <stop offset="1" stop-color="#4a3608"/>
    </linearGradient>
    <linearGradient id="bgREn" x1="400" y1="0" x2="800" y2="400" gradientUnits="userSpaceOnUse">
      <stop offset="0" stop-color="#3a1408"/>
      <stop offset="1" stop-color="#5c1f0e"/>
    </linearGradient>
  </defs>
  <polygon points="0,0 460,0 340,400 0,400" fill="url(#bgLEn)"/>
  <polygon points="460,0 800,0 800,400 340,400" fill="url(#bgREn)"/>
  <line x1="460" y1="0" x2="340" y2="400" stroke="#fb923c" stroke-width="3" opacity="0.8"/>

  <g transform="translate(170,168)">
    <path d="M-50 -40 h100 M-38 -40 v-18 h76 v18 M-40 -40 l10 96 h60 l10 -96" fill="none" stroke="#fcd34d" stroke-width="5" stroke-linejoin="round"/>
    <line x1="-16" y1="-24" x2="-12" y2="46" stroke="#fcd34d" stroke-width="4" opacity="0.7"/>
    <line x1="0" y1="-24" x2="0" y2="46" stroke="#fcd34d" stroke-width="4" opacity="0.7"/>
    <line x1="16" y1="-24" x2="12" y2="46" stroke="#fcd34d" stroke-width="4" opacity="0.7"/>
  </g>
  <text x="170" y="286" text-anchor="middle" font-family="sans-serif" font-size="16" font-weight="700" fill="#fde68a">Account Deleted</text>

  <g transform="translate(600,168)">
    <circle cx="0" cy="0" r="66" fill="none" stroke="#f87171" stroke-width="5"/>
    <text x="0" y="20" text-anchor="middle" font-size="64" font-weight="700" fill="#f87171">$</text>
  </g>
  <text x="600" y="286" text-anchor="middle" font-family="sans-serif" font-size="16" font-weight="700" fill="#fca5a5">Billing Still Runs</text>

  <rect x="0" y="326" width="800" height="74" fill="#170f03"/>
  <text x="400" y="360" text-anchor="middle" font-family="sans-serif" font-size="25" font-weight="700" fill="#fde68a">Delete ≠ Cancel Subscription</text>
  <text x="400" y="388" text-anchor="middle" font-family="sans-serif" font-size="14" fill="#fb923c">Two separate systems — cancel billing first</text>
</svg>
