<svg viewBox="0 0 800 400" xmlns="http://www.w3.org/2000/svg" role="img" aria-label="Invoices and expense reports for AI subscriptions cover image">
  <defs>
    <linearGradient id="bgGrad4" x1="0" y1="0" x2="800" y2="400" gradientUnits="userSpaceOnUse">
      <stop offset="0" stop-color="#1a1f16"/>
      <stop offset="1" stop-color="#26301c"/>
    </linearGradient>
    <radialGradient id="glow4" cx="680" cy="70" r="260" gradientUnits="userSpaceOnUse">
      <stop offset="0" stop-color="#a9c357" stop-opacity="0.35"/>
      <stop offset="1" stop-color="#a9c357" stop-opacity="0"/>
    </radialGradient>
  </defs>
  <rect width="800" height="400" fill="url(#bgGrad4)"/>
  <rect width="800" height="400" fill="url(#glow4)"/>
  <g stroke="#5c6b3a" stroke-width="1.4" opacity="0.55" fill="none">
    <path d="M40 40 h90 v50 h60"/>
    <path d="M60 360 h80 v-45 h55"/>
  </g>
  <g fill="#c3d97e">
    <circle cx="40" cy="40" r="3.5"/>
    <circle cx="130" cy="40" r="3.5"/>
    <circle cx="190" cy="90" r="3.5"/>
    <circle cx="60" cy="360" r="3.5"/>
    <circle cx="140" cy="360" r="3.5"/>
    <circle cx="195" cy="315" r="3.5"/>
  </g>
  <rect x="64" y="70" width="96" height="96" rx="22" fill="#2a3320" stroke="#c3d97e" stroke-width="2.5"/>
  <rect x="96" y="94" width="32" height="42" rx="4" fill="none" stroke="#e8f0c8" stroke-width="3"/>
  <path d="M103 106 h18 M103 114 h18 M103 122 h11" stroke="#c3d97e" stroke-width="2.5" stroke-linecap="round"/>
  <path d="M100 143 l6 6 l12 -14" fill="none" stroke="#a9c357" stroke-width="3.5" stroke-linecap="round" stroke-linejoin="round"/>
  <text x="64" y="258" font-family="-apple-system, 'Segoe UI', Arial, sans-serif" font-size="50" font-weight="700" fill="#f0f3e0">Invoices</text>
  <text x="66" y="300" font-family="-apple-system, 'Segoe UI', Arial, sans-serif" font-size="18" font-weight="600" letter-spacing="3" fill="#b6cc72">INVOICES &amp; REIMBURSEMENT</text>
  <text x="736" y="366" text-anchor="end" font-family="-apple-system, 'Segoe UI', Arial, sans-serif" font-size="16" font-weight="700" fill="#b6cc72" opacity="0.85">AI Access Guide</text>

  <rect x="420" y="70" width="330" height="230" rx="16" fill="#2a3320" stroke="#5c6b3a" stroke-width="1.5"/>
  <circle cx="446" cy="100" r="6" fill="#a9c357"/>
  <text x="462" y="105" font-family="-apple-system, 'Segoe UI', Arial, sans-serif" font-size="14" font-weight="700" fill="#f0f3e0">Expense Report · Verified</text>
  <line x1="440" y1="122" x2="730" y2="122" stroke="#3a4526" stroke-width="1"/>

  <text x="440" y="150" font-family="-apple-system, 'Segoe UI', Arial, sans-serif" font-size="13" fill="#e8f0c8">Official invoice PDF</text>
  <text x="730" y="150" text-anchor="end" font-family="'SFMono-Regular', Consolas, monospace" font-size="13" fill="#c3d97e">$20.00</text>

  <text x="440" y="180" font-family="-apple-system, 'Segoe UI', Arial, sans-serif" font-size="13" fill="#e8f0c8">Virtual card record</text>
  <text x="730" y="180" text-anchor="end" font-family="'SFMono-Regular', Consolas, monospace" font-size="13" fill="#c3d97e">$20.00</text>

  <line x1="440" y1="198" x2="730" y2="198" stroke="#3a4526" stroke-width="1"/>
  <text x="440" y="220" font-family="-apple-system, 'Segoe UI', Arial, sans-serif" font-size="13" font-weight="700" fill="#f0f3e0">Total</text>
  <text x="730" y="220" text-anchor="end" font-family="'SFMono-Regular', Consolas, monospace" font-size="14" font-weight="700" fill="#e8f0c8">$40.00</text>

  <rect x="440" y="238" width="290" height="44" rx="10" fill="#233022" stroke="#5c6b3a" stroke-width="1"/>
  <text x="454" y="265" font-family="-apple-system, 'Segoe UI', Arial, sans-serif" font-size="13" font-weight="600" fill="#d3e6a8">✓ Ready to submit</text>
</svg>
