<svg viewBox="0 0 800 400" xmlns="http://www.w3.org/2000/svg" role="img" aria-label="海外AI订阅稳定币跨链兑换工具选择指南封面图">
  <defs>
    <linearGradient id="bgGrad18" x1="0" y1="0" x2="800" y2="400" gradientUnits="userSpaceOnUse">
      <stop offset="0" stop-color="#122016"/>
      <stop offset="1" stop-color="#1c3322"/>
    </linearGradient>
    <radialGradient id="glow18" cx="680" cy="70" r="260" gradientUnits="userSpaceOnUse">
      <stop offset="0" stop-color="#8fd97a" stop-opacity="0.35"/>
      <stop offset="1" stop-color="#8fd97a" stop-opacity="0"/>
    </radialGradient>
  </defs>
  <rect width="800" height="400" fill="url(#bgGrad18)"/>
  <rect width="800" height="400" fill="url(#glow18)"/>
  <g stroke="#3f6a4a" stroke-width="1.4" opacity="0.55" fill="none">
    <path d="M40 40 h90 v50 h60"/>
    <path d="M60 360 h80 v-45 h55"/>
  </g>
  <g fill="#bfe89f">
    <circle cx="40" cy="40" r="3.5"/>
    <circle cx="130" cy="40" r="3.5"/>
    <circle cx="190" cy="90" r="3.5"/>
    <circle cx="60" cy="360" r="3.5"/>
    <circle cx="140" cy="360" r="3.5"/>
    <circle cx="195" cy="315" r="3.5"/>
  </g>
  <rect x="64" y="70" width="96" height="96" rx="22" fill="#1f3826" stroke="#bfe89f" stroke-width="2.5"/>
  <path d="M92 100 a20 20 0 0 1 34 -10 l0 -10 l12 14 l-12 14 l0 -10 a12 12 0 0 0 -20 6" fill="none" stroke="#eaf9e0" stroke-width="3.2" stroke-linecap="round" stroke-linejoin="round"/>
  <path d="M132 132 a20 20 0 0 1 -34 10 l0 10 l-12 -14 l12 -14 l0 10 a12 12 0 0 0 20 -6" fill="none" stroke="#bfe89f" stroke-width="3.2" stroke-linecap="round" stroke-linejoin="round"/>
  <text x="64" y="258" font-family="-apple-system, 'Segoe UI', 'PingFang SC', 'Microsoft YaHei', sans-serif" font-size="50" font-weight="700" fill="#eefbe6">跨链兑换</text>
  <text x="66" y="300" font-family="-apple-system, 'Segoe UI', 'PingFang SC', 'Microsoft YaHei', sans-serif" font-size="18" font-weight="600" letter-spacing="3" fill="#bfe89f">CHAIN SWAP TOOL GUIDE</text>
  <text x="736" y="366" text-anchor="end" font-family="-apple-system, 'Segoe UI', 'PingFang SC', 'Microsoft YaHei', sans-serif" font-size="16" font-weight="700" fill="#bfe89f" opacity="0.85">AI服务指南</text>

  <rect x="420" y="70" width="330" height="230" rx="16" fill="#1f3826" stroke="#3f6a4a" stroke-width="1.5"/>
  <circle cx="446" cy="100" r="6" fill="#8fd97a"/>
  <text x="462" y="105" font-family="-apple-system, 'Segoe UI', 'PingFang SC', 'Microsoft YaHei', sans-serif" font-size="14" font-weight="700" fill="#eefbe6">兑换报价 · 实时</text>
  <line x1="440" y1="122" x2="730" y2="122" stroke="#2c4a34" stroke-width="1"/>

  <rect x="440" y="136" width="118" height="30" rx="15" fill="#193d29" stroke="#5f9a71" stroke-width="1.2"/>
  <text x="499" y="156" text-anchor="middle" font-family="-apple-system, 'Segoe UI', sans-serif" font-size="12.5" font-weight="700" fill="#eafbe6">BSC USDT</text>
  <text x="576" y="156" text-anchor="middle" font-family="-apple-system, sans-serif" font-size="15" fill="#8fd97a">→</text>
  <rect x="592" y="136" width="118" height="30" rx="15" fill="#193d29" stroke="#8fd97a" stroke-width="1.2"/>
  <text x="651" y="156" text-anchor="middle" font-family="-apple-system, 'Segoe UI', sans-serif" font-size="12.5" font-weight="700" fill="#eafbe6">TRC20</text>

  <text x="440" y="196" font-family="'SFMono-Regular', Consolas, monospace" font-size="13" fill="#bfe89f">汇率  1 : 0.998</text>
  <text x="440" y="220" font-family="'SFMono-Regular', Consolas, monospace" font-size="13" fill="#bfe89f">手续费  0.15%</text>

  <rect x="440" y="238" width="290" height="42" rx="21" fill="#8fd97a"/>
  <text x="585" y="264" text-anchor="middle" font-family="-apple-system, 'Segoe UI', 'PingFang SC', 'Microsoft YaHei', sans-serif" font-size="13.5" font-weight="700" fill="#122016">确认兑换 →</text>
</svg>
