<svg viewBox="0 0 800 400" xmlns="http://www.w3.org/2000/svg" role="img" aria-label="Setting the right virtual card expiry for AI subscriptions cover image">
  <defs>
    <linearGradient id="bgGrad27en" x1="0" y1="0" x2="800" y2="400" gradientUnits="userSpaceOnUse">
      <stop offset="0" stop-color="#0d1f15"/>
      <stop offset="1" stop-color="#1c3d28"/>
    </linearGradient>
    <radialGradient id="glow27en" cx="680" cy="70" r="260" gradientUnits="userSpaceOnUse">
      <stop offset="0" stop-color="#6fcf8a" stop-opacity="0.35"/>
      <stop offset="1" stop-color="#6fcf8a" stop-opacity="0"/>
    </radialGradient>
  </defs>
  <rect width="800" height="400" fill="url(#bgGrad27en)"/>
  <rect width="800" height="400" fill="url(#glow27en)"/>
  <g stroke="#3f6a4c" stroke-width="1.4" opacity="0.55" fill="none">
    <path d="M40 40 h90 v50 h60"/>
    <path d="M60 360 h80 v-45 h55"/>
  </g>
  <g fill="#8fcf9c">
    <circle cx="40" cy="40" r="3.5"/>
    <circle cx="130" cy="40" r="3.5"/>
    <circle cx="190" cy="90" r="3.5"/>
    <circle cx="60" cy="360" r="3.5"/>
    <circle cx="140" cy="360" r="3.5"/>
    <circle cx="195" cy="315" r="3.5"/>
  </g>
  <rect x="64" y="70" width="96" height="96" rx="22" fill="#132a1c" stroke="#8fcf9c" stroke-width="2.5"/>
  <circle cx="112" cy="118" r="30" fill="none" stroke="#3f6a4c" stroke-width="7"/>
  <line x1="112" y1="118" x2="112" y2="98" stroke="#e8fcec" stroke-width="4" stroke-linecap="round"/>
  <line x1="112" y1="118" x2="128" y2="128" stroke="#8fcf9c" stroke-width="4" stroke-linecap="round"/>
  <circle cx="112" cy="118" r="4" fill="#e8fcec"/>
  <text x="64" y="240" font-family="-apple-system, 'Segoe UI', Arial, sans-serif" font-size="34" font-weight="800" fill="#e8fcec">Setting the</text>
  <text x="64" y="278" font-family="-apple-system, 'Segoe UI', Arial, sans-serif" font-size="34" font-weight="800" fill="#e8fcec">Right Expiry</text>
  <text x="66" y="308" font-family="-apple-system, 'Segoe UI', Arial, sans-serif" font-size="15" font-weight="600" letter-spacing="2" fill="#8fcf9c">CARD VALIDITY</text>
  <text x="736" y="366" text-anchor="end" font-family="-apple-system, 'Segoe UI', Arial, sans-serif" font-size="16" font-weight="700" fill="#8fcf9c" opacity="0.85">AI Access Guide</text>

  <rect x="420" y="70" width="330" height="230" rx="16" fill="#132a1c" stroke="#3f6a4c" stroke-width="1.5"/>
  <circle cx="446" cy="100" r="6" fill="#8fcf9c"/>
  <text x="462" y="105" font-family="-apple-system, 'Segoe UI', Arial, sans-serif" font-size="14" font-weight="700" fill="#e8fcec">The Safe Range</text>
  <line x1="440" y1="122" x2="730" y2="122" stroke="#2a4c36" stroke-width="1"/>

  <text x="440" y="150" font-family="-apple-system, 'Segoe UI', Arial, sans-serif" font-size="13" fill="#cfeed6">Expiry too soon</text>
  <text x="730" y="150" text-anchor="end" font-family="-apple-system, 'Segoe UI', Arial, sans-serif" font-size="13" font-weight="700" fill="#8fcf9c">Renewal fails</text>

  <text x="440" y="180" font-family="-apple-system, 'Segoe UI', Arial, sans-serif" font-size="13" fill="#cfeed6">Expiry too far</text>
  <text x="730" y="180" text-anchor="end" font-family="-apple-system, 'Segoe UI', Arial, sans-serif" font-size="13" font-weight="700" fill="#8fcf9c">Longer exposure</text>

  <line x1="440" y1="198" x2="730" y2="198" stroke="#2a4c36" stroke-width="1"/>
  <text x="440" y="220" font-family="-apple-system, 'Segoe UI', Arial, sans-serif" font-size="13" font-weight="700" fill="#e8fcec">Safe range</text>
  <text x="730" y="220" text-anchor="end" font-family="-apple-system, 'Segoe UI', Arial, sans-serif" font-size="13" font-weight="700" fill="#8fcf9c">Cycle + 1-2 mo</text>

  <rect x="440" y="238" width="290" height="44" rx="10" fill="#0d1f15" stroke="#3f6a4c" stroke-width="1"/>
  <text x="454" y="265" font-family="-apple-system, 'Segoe UI', Arial, sans-serif" font-size="13" font-weight="600" fill="#dcf7e2">&#10003; Adjust as the billing cycle changes</text>
</svg>
