<svg viewBox="0 0 800 400" xmlns="http://www.w3.org/2000/svg" role="img" aria-label="Tool evaluation guide for overseas AI subscriptions cover">
  <defs>
    <linearGradient id="bgGrad11en" x1="0" y1="0" x2="800" y2="400" gradientUnits="userSpaceOnUse">
      <stop offset="0" stop-color="#131a2e"/>
      <stop offset="1" stop-color="#1c2745"/>
    </linearGradient>
    <radialGradient id="glow11en" cx="680" cy="70" r="260" gradientUnits="userSpaceOnUse">
      <stop offset="0" stop-color="#6f96e8" stop-opacity="0.35"/>
      <stop offset="1" stop-color="#6f96e8" stop-opacity="0"/>
    </radialGradient>
  </defs>
  <rect width="800" height="400" fill="url(#bgGrad11en)"/>
  <rect width="800" height="400" fill="url(#glow11en)"/>
  <g stroke="#3d4a72" stroke-width="1.4" opacity="0.55" fill="none">
    <path d="M40 40 h90 v50 h60"/>
    <path d="M760 60 h-70 v40 h-50 v60"/>
    <path d="M60 360 h80 v-45 h55"/>
    <path d="M740 340 h-95 v-40 h-45"/>
    <path d="M420 30 v35 h60 v40"/>
  </g>
  <g fill="#9fb4e8">
    <circle cx="40" cy="40" r="3.5"/>
    <circle cx="130" cy="40" r="3.5"/>
    <circle cx="190" cy="90" r="3.5"/>
    <circle cx="760" cy="60" r="3.5"/>
    <circle cx="690" cy="100" r="3.5"/>
    <circle cx="640" cy="160" r="3.5"/>
    <circle cx="60" cy="360" r="3.5"/>
    <circle cx="140" cy="360" r="3.5"/>
    <circle cx="195" cy="315" r="3.5"/>
    <circle cx="740" cy="340" r="3.5"/>
    <circle cx="645" cy="300" r="3.5"/>
    <circle cx="420" cy="30" r="3.5"/>
    <circle cx="480" cy="65" r="3.5"/>
    <circle cx="480" cy="105" r="3.5"/>
  </g>
  <rect x="64" y="70" width="96" height="96" rx="22" fill="#20294a" stroke="#9fb4e8" stroke-width="2.5"/>
  <circle cx="106" cy="108" r="17" fill="none" stroke="#e2e9fa" stroke-width="3.2"/>
  <line x1="118" y1="120" x2="134" y2="136" stroke="#9fb4e8" stroke-width="4" stroke-linecap="round"/>
  <path d="M99 108 l5 5 l9 -11" fill="none" stroke="#9fb4e8" stroke-width="2.6" stroke-linecap="round" stroke-linejoin="round"/>
  <text x="64" y="248" font-family="-apple-system, 'Segoe UI', sans-serif" font-size="44" font-weight="700" fill="#eaeffb">Pick the Right Tools</text>
  <text x="66" y="290" font-family="-apple-system, 'Segoe UI', sans-serif" font-size="18" font-weight="600" letter-spacing="3" fill="#9fb4e8">TOOL EVALUATION GUIDE</text>
  <text x="736" y="366" text-anchor="end" font-family="-apple-system, 'Segoe UI', sans-serif" font-size="16" font-weight="700" fill="#9fb4e8" opacity="0.85">AI Access Guide</text>
</svg>
