<svg viewBox="0 0 800 400" xmlns="http://www.w3.org/2000/svg" role="img" aria-label="Silent card reissue locking out AI subscription accounts">
  <defs>
    <linearGradient id="bgCrle" x1="0" y1="0" x2="800" y2="400" gradientUnits="userSpaceOnUse">
      <stop offset="0" stop-color="#241a08"/>
      <stop offset="1" stop-color="#402c0a"/>
    </linearGradient>
    <radialGradient id="glowCrle" cx="400" cy="150" r="320" gradientUnits="userSpaceOnUse">
      <stop offset="0" stop-color="#f59e0b" stop-opacity="0.22"/>
      <stop offset="1" stop-color="#f59e0b" stop-opacity="0"/>
    </radialGradient>
  </defs>
  <rect width="800" height="400" fill="url(#bgCrle)"/>
  <rect width="800" height="400" fill="url(#glowCrle)"/>
  <g fill="#f59e0b" opacity="0.35">
    <circle cx="70" cy="60" r="2.5"/><circle cx="140" cy="120" r="2"/><circle cx="90" cy="200" r="2.5"/>
    <circle cx="710" cy="70" r="2.5"/><circle cx="660" cy="140" r="2"/><circle cx="730" cy="220" r="2.5"/>
    <circle cx="200" cy="330" r="2"/><circle cx="600" cy="340" r="2"/>
  </g>

  <g transform="translate(400,160)">
    <g transform="translate(-220,0)" opacity="0.45">
      <rect x="-70" y="-44" width="140" height="88" rx="12" fill="none" stroke="#fbbf24" stroke-width="2.5" stroke-dasharray="6 6"/>
      <rect x="-54" y="-20" width="30" height="20" rx="3" fill="none" stroke="#fbbf24" stroke-width="2"/>
      <text x="-54" y="26" font-size="14" fill="#fbbf24" font-family="Arial,Helvetica,sans-serif">•••• 4471</text>
      <text x="0" y="66" text-anchor="middle" font-size="12" fill="#fbbf24" font-family="Arial,Helvetica,sans-serif">Old card dead</text>
    </g>

    <g transform="translate(0,-4)">
      <rect x="-30" y="-6" width="60" height="46" rx="8" fill="#402c0a" stroke="#fde68a" stroke-width="3"/>
      <path d="M-18 -6 v-16 a18 18 0 0 1 36 0 v16" fill="none" stroke="#fde68a" stroke-width="4"/>
      <circle cx="0" cy="18" r="6" fill="#fde68a"/>
    </g>

    <g transform="translate(220,0)">
      <rect x="-70" y="-44" width="140" height="88" rx="12" fill="#402c0a" stroke="#fde68a" stroke-width="3"/>
      <rect x="-54" y="-20" width="30" height="20" rx="3" fill="#fde68a"/>
      <text x="-54" y="26" font-size="14" fill="#fef3c7" font-weight="700" font-family="Arial,Helvetica,sans-serif">•••• 8823</text>
      <text x="0" y="66" text-anchor="middle" font-size="12" fill="#fde68a" font-weight="700" font-family="Arial,Helvetica,sans-serif">New card issued</text>
    </g>
  </g>

  <rect x="190" y="316" width="420" height="46" rx="23" fill="#402c0a" stroke="#f59e0b" stroke-width="2"/>
  <text x="400" y="346" text-anchor="middle" font-family="Arial,Helvetica,sans-serif" font-size="18" font-weight="700" fill="#fef3c7">Your Bank Reissued the Card. Now You're Locked Out.</text>
</svg>
