<svg viewBox="0 0 800 400" xmlns="http://www.w3.org/2000/svg" role="img" aria-label="海外AI订阅资金储备与链上资产管理指南封面图">
  <defs>
    <linearGradient id="bgGrad7" x1="0" y1="0" x2="800" y2="400" gradientUnits="userSpaceOnUse">
      <stop offset="0" stop-color="#221c10"/>
      <stop offset="1" stop-color="#332a15"/>
    </linearGradient>
    <radialGradient id="glow7" cx="120" cy="330" r="260" gradientUnits="userSpaceOnUse">
      <stop offset="0" stop-color="#e0b93f" stop-opacity="0.30"/>
      <stop offset="1" stop-color="#e0b93f" stop-opacity="0"/>
    </radialGradient>
  </defs>
  <rect width="800" height="400" fill="url(#bgGrad7)"/>
  <rect width="800" height="400" fill="url(#glow7)"/>
  <g fill="#e6c667" opacity="0.7">
    <circle cx="40" cy="356" r="3"/>
    <circle cx="60" cy="366" r="3"/>
    <circle cx="756" cy="34" r="3"/>
    <circle cx="736" cy="24" r="3"/>
  </g>

  <rect x="64" y="48" width="672" height="118" rx="16" fill="#362c14" stroke="#7a6a35" stroke-width="1.5"/>
  <rect x="86" y="70" width="26" height="22" rx="4" fill="none" stroke="#f3e3ab" stroke-width="2.6"/>
  <path d="M90 70 v-6 a10 10 0 0 1 20 0 v6" fill="none" stroke="#f3e3ab" stroke-width="2.6"/>
  <circle cx="100" cy="81" r="3" fill="#e6c667"/>
  <text x="122" y="86" font-family="-apple-system, 'Segoe UI', 'PingFang SC', 'Microsoft YaHei', sans-serif" font-size="14" font-weight="700" fill="#f8f1da">链上余额 · 已储备</text>
  <line x1="86" y1="102" x2="714" y2="102" stroke="#4a3f1e" stroke-width="1"/>

  <text x="86" y="128" font-family="'SFMono-Regular', Consolas, monospace" font-size="12.5" fill="#e6c667">TRC20 · USDT　82%</text>
  <rect x="86" y="138" width="290" height="9" rx="4.5" fill="#4a3f1e"/>
  <rect x="86" y="138" width="238" height="9" rx="4.5" fill="#e0b93f"/>

  <text x="410" y="128" font-family="'SFMono-Regular', Consolas, monospace" font-size="12.5" fill="#e6c667">ERC20 · USDC　35%</text>
  <rect x="410" y="138" width="290" height="9" rx="4.5" fill="#4a3f1e"/>
  <rect x="410" y="138" width="102" height="9" rx="4.5" fill="#e0b93f"/>

  <text x="64" y="252" font-family="-apple-system, 'Segoe UI', 'PingFang SC', 'Microsoft YaHei', sans-serif" font-size="54" font-weight="700" fill="#f8f1da">资金储备</text>
  <text x="66" y="290" font-family="-apple-system, 'Segoe UI', 'PingFang SC', 'Microsoft YaHei', sans-serif" font-size="18" font-weight="600" letter-spacing="2" fill="#e6c667">FUND RESERVE &amp; ASSETS</text>
  <text x="64" y="322" font-family="-apple-system, 'Segoe UI', 'PingFang SC', 'Microsoft YaHei', sans-serif" font-size="14" font-weight="600" fill="#c7dba0">✓ 满足下次续费所需</text>
  <text x="736" y="366" text-anchor="end" font-family="-apple-system, 'Segoe UI', 'PingFang SC', 'Microsoft YaHei', sans-serif" font-size="16" font-weight="700" fill="#e6c667" opacity="0.85">AI服务指南</text>
</svg>
