<svg viewBox="0 0 800 400" xmlns="http://www.w3.org/2000/svg" role="img" aria-label="Copilot vs Cursor which AI coding plan to pick cover image">
  <defs>
    <linearGradient id="bgGradAicaEn" x1="0" y1="0" x2="800" y2="400" gradientUnits="userSpaceOnUse">
      <stop offset="0" stop-color="#0a1826"/>
      <stop offset="1" stop-color="#123a56"/>
    </linearGradient>
    <radialGradient id="glowAicaEn" cx="680" cy="70" r="260" gradientUnits="userSpaceOnUse">
      <stop offset="0" stop-color="#38bdf8" stop-opacity="0.35"/>
      <stop offset="1" stop-color="#38bdf8" stop-opacity="0"/>
    </radialGradient>
  </defs>
  <rect width="800" height="400" fill="url(#bgGradAicaEn)"/>
  <rect width="800" height="400" fill="url(#glowAicaEn)"/>
  <g stroke="#1e4f6b" stroke-width="1.4" opacity="0.55" fill="none">
    <path d="M40 40 h90 v50 h60"/>
    <path d="M60 360 h80 v-45 h55"/>
  </g>
  <g fill="#7dd3fc">
    <circle cx="40" cy="40" r="3.5"/>
    <circle cx="130" cy="40" r="3.5"/>
    <circle cx="190" cy="90" r="3.5"/>
    <circle cx="60" cy="360" r="3.5"/>
    <circle cx="140" cy="360" r="3.5"/>
    <circle cx="195" cy="315" r="3.5"/>
  </g>

  <rect x="64" y="70" width="96" height="96" rx="22" fill="#0f2c3d" stroke="#7dd3fc" stroke-width="2.5"/>
  <rect x="86" y="96" width="46" height="7" rx="3.5" fill="#e0f7ff"/>
  <rect x="86" y="114" width="32" height="7" rx="3.5" fill="#e0f7ff"/>
  <rect x="86" y="132" width="40" height="7" rx="3.5" fill="#38bdf8" opacity="0.45" stroke-dasharray="3 3"/>
  <rect x="121" y="114" width="3" height="9" fill="#38bdf8"/>

  <text x="64" y="230" font-family="-apple-system, 'Segoe UI', sans-serif" font-size="42" font-weight="700" fill="#e8f7ff">Copilot vs</text>
  <text x="64" y="278" font-family="-apple-system, 'Segoe UI', sans-serif" font-size="42" font-weight="700" fill="#e8f7ff">Cursor</text>
  <text x="66" y="308" font-family="-apple-system, 'Segoe UI', sans-serif" font-size="17" font-weight="600" letter-spacing="2" fill="#7dd3fc">SEAT &#183; USAGE &#183; PRICING</text>
  <text x="736" y="366" text-anchor="end" font-family="-apple-system, 'Segoe UI', sans-serif" font-size="16" font-weight="700" fill="#7dd3fc" opacity="0.85">AI Access Guide</text>

  <rect x="420" y="70" width="330" height="230" rx="16" fill="#0f2c3d" stroke="#1e4f6b" stroke-width="1.5"/>
  <circle cx="446" cy="100" r="6" fill="#7dd3fc"/>
  <text x="462" y="105" font-family="-apple-system, 'Segoe UI', sans-serif" font-size="14" font-weight="700" fill="#e8f7ff">Billing Comparison</text>
  <line x1="440" y1="122" x2="730" y2="122" stroke="#1e4f6b" stroke-width="1"/>

  <text x="440" y="150" font-family="-apple-system, 'Segoe UI', sans-serif" font-size="13" fill="#c9e9fb">GitHub Copilot</text>
  <text x="730" y="150" text-anchor="end" font-family="-apple-system, 'Segoe UI', sans-serif" font-size="13" font-weight="700" fill="#7dd3fc">Per-seat, monthly</text>

  <text x="440" y="180" font-family="-apple-system, 'Segoe UI', sans-serif" font-size="13" fill="#c9e9fb">Cursor</text>
  <text x="730" y="180" text-anchor="end" font-family="-apple-system, 'Segoe UI', sans-serif" font-size="13" font-weight="700" fill="#7dd3fc">Plan + usage-based</text>

  <line x1="440" y1="198" x2="730" y2="198" stroke="#1e4f6b" stroke-width="1"/>
  <text x="440" y="220" font-family="-apple-system, 'Segoe UI', sans-serif" font-size="13" font-weight="700" fill="#e8f7ff">In common</text>
  <text x="730" y="220" text-anchor="end" font-family="-apple-system, 'Segoe UI', sans-serif" font-size="13" font-weight="700" fill="#7dd3fc">Card or stablecoin works</text>

  <rect x="440" y="238" width="290" height="44" rx="10" fill="#0a1826" stroke="#1e4f6b" stroke-width="1"/>
  <text x="454" y="265" font-family="-apple-system, 'Segoe UI', sans-serif" font-size="13" font-weight="600" fill="#dbf0fc">&#10003; Solo devs can subscribe without a team seat</text>
</svg>
