<svg viewBox="0 0 800 400" xmlns="http://www.w3.org/2000/svg" role="img" aria-label="海外AI订阅稳定币跨链转错自救指南封面图">
  <defs>
    <linearGradient id="bgGrad10" x1="0" y1="0" x2="800" y2="400" gradientUnits="userSpaceOnUse">
      <stop offset="0" stop-color="#1c1530"/>
      <stop offset="1" stop-color="#2a1f42"/>
    </linearGradient>
    <radialGradient id="glow10" cx="680" cy="70" r="260" gradientUnits="userSpaceOnUse">
      <stop offset="0" stop-color="#a07af0" stop-opacity="0.35"/>
      <stop offset="1" stop-color="#a07af0" stop-opacity="0"/>
    </radialGradient>
  </defs>
  <rect width="800" height="400" fill="url(#bgGrad10)"/>
  <rect width="800" height="400" fill="url(#glow10)"/>
  <g stroke="#5c4a86" stroke-width="1.4" opacity="0.55" fill="none">
    <path d="M40 40 h90 v50 h60"/>
    <path d="M60 360 h80 v-45 h55"/>
  </g>
  <g fill="#c8b0f5">
    <circle cx="40" cy="40" r="3.5"/>
    <circle cx="130" cy="40" r="3.5"/>
    <circle cx="190" cy="90" r="3.5"/>
    <circle cx="60" cy="360" r="3.5"/>
    <circle cx="140" cy="360" r="3.5"/>
    <circle cx="195" cy="315" r="3.5"/>
  </g>
  <rect x="64" y="70" width="96" height="96" rx="22" fill="#2e2350" stroke="#c8b0f5" stroke-width="2.5"/>
  <path d="M92 100 a20 20 0 0 1 34 -10 l0 -10 l12 14 l-12 14 l0 -10 a12 12 0 0 0 -20 6" fill="none" stroke="#e9def9" stroke-width="3.2" stroke-linecap="round" stroke-linejoin="round"/>
  <path d="M132 132 a20 20 0 0 1 -34 10 l0 10 l-12 -14 l12 -14 l0 10 a12 12 0 0 0 20 -6" fill="none" stroke="#c8b0f5" stroke-width="3.2" stroke-linecap="round" stroke-linejoin="round"/>
  <text x="64" y="258" font-family="-apple-system, 'Segoe UI', 'PingFang SC', 'Microsoft YaHei', sans-serif" font-size="50" font-weight="700" fill="#f1e9fc">链上纠错</text>
  <text x="66" y="300" font-family="-apple-system, 'Segoe UI', 'PingFang SC', 'Microsoft YaHei', sans-serif" font-size="18" font-weight="600" letter-spacing="3" fill="#c8b0f5">CROSS-CHAIN RECOVERY GUIDE</text>
  <text x="736" y="366" text-anchor="end" font-family="-apple-system, 'Segoe UI', 'PingFang SC', 'Microsoft YaHei', sans-serif" font-size="16" font-weight="700" fill="#c8b0f5" opacity="0.85">海外AI订阅指南</text>

  <rect x="420" y="70" width="330" height="230" rx="16" fill="#241c3d" stroke="#5c4a86" stroke-width="1.5"/>
  <circle cx="446" cy="100" r="6" fill="#a07af0"/>
  <text x="462" y="105" font-family="-apple-system, 'Segoe UI', 'PingFang SC', 'Microsoft YaHei', sans-serif" font-size="14" font-weight="700" fill="#e9def9">链上核对 · 地址不匹配</text>
  <line x1="440" y1="122" x2="730" y2="122" stroke="#3d3060" stroke-width="1"/>
  <text x="440" y="150" font-family="'SFMono-Regular', Consolas, monospace" font-size="13" fill="#c8b0f5">Tx  0x4a2f…9e1c</text>

  <rect x="440" y="168" width="118" height="30" rx="15" fill="#2e2350" stroke="#8a72c0" stroke-width="1.2"/>
  <text x="499" y="188" text-anchor="middle" font-family="-apple-system, 'Segoe UI', sans-serif" font-size="12.5" font-weight="700" fill="#e9def9">TRC20</text>
  <text x="576" y="188" text-anchor="middle" font-family="-apple-system, sans-serif" font-size="15" fill="#a07af0">→</text>
  <rect x="592" y="168" width="118" height="30" rx="15" fill="#3a1f2e" stroke="#e0687a" stroke-width="1.2"/>
  <text x="651" y="188" text-anchor="middle" font-family="-apple-system, 'Segoe UI', sans-serif" font-size="12.5" font-weight="700" fill="#f3c6d2">ERC20</text>

  <rect x="440" y="216" width="290" height="66" rx="10" fill="#2e2350" stroke="#5c4a86" stroke-width="1"/>
  <text x="454" y="240" font-family="-apple-system, 'Segoe UI', 'PingFang SC', 'Microsoft YaHei', sans-serif" font-size="13" font-weight="600" fill="#f3c6d2">⚠ 地址格式不兼容</text>
  <text x="454" y="262" font-family="-apple-system, 'Segoe UI', 'PingFang SC', 'Microsoft YaHei', sans-serif" font-size="12" fill="#c8b0f5">建议先核实资产真实状态</text>
</svg>
