<svg viewBox="0 0 860 420" xmlns="http://www.w3.org/2000/svg" role="img" aria-label="Featured cover image for should you consolidate your AI subscription stablecoins guide">
  <defs>
    <linearGradient id="fbgGrad23en" x1="0" y1="0" x2="860" y2="420" gradientUnits="userSpaceOnUse">
      <stop offset="0" stop-color="#24101a"/>
      <stop offset="1" stop-color="#3d1b2c"/>
    </linearGradient>
    <radialGradient id="fglow23en" cx="650" cy="210" r="220" gradientUnits="userSpaceOnUse">
      <stop offset="0" stop-color="#e0537d" stop-opacity="0.35"/>
      <stop offset="1" stop-color="#e0537d" stop-opacity="0"/>
    </radialGradient>
  </defs>
  <rect width="860" height="420" fill="url(#fbgGrad23en)"/>
  <rect width="860" height="420" fill="url(#fglow23en)"/>

  <g fill="#f5b8cd" opacity="0.16">
    <circle cx="90" cy="150" r="2"/><circle cx="150" cy="200" r="2"/><circle cx="230" cy="120" r="2"/>
    <circle cx="480" cy="60" r="2"/><circle cx="540" cy="330" r="2"/><circle cx="620" cy="70" r="2"/>
    <circle cx="790" cy="140" r="2"/><circle cx="810" cy="280" r="2"/><circle cx="380" cy="290" r="2"/>
    <circle cx="700" cy="330" r="2"/><circle cx="260" cy="340" r="2"/><circle cx="440" cy="40" r="2"/>
  </g>

  <g>
    <rect x="40" y="34" width="32" height="32" rx="9" fill="#e0537d"/>
    <text x="56" y="55" text-anchor="middle" font-family="-apple-system, 'Segoe UI', Arial, sans-serif" font-size="15" font-weight="800" fill="#24101a">AI</text>
    <text x="82" y="55" font-family="-apple-system, 'Segoe UI', Arial, sans-serif" font-size="13.5" font-weight="600" fill="#f5b8cd">AI Access Guide Editorial Team</text>
  </g>
  <text x="40" y="102" font-family="-apple-system, 'Segoe UI', Arial, sans-serif" font-size="13" font-weight="700" letter-spacing="3" fill="#f5b8cd">STABLECOIN RESERVES</text>

  <g stroke="#f5b8cd" stroke-width="2" fill="none" opacity="0.85">
    <path d="M660 176 C 620 190, 590 200, 560 150" stroke-dasharray="1 7" stroke-linecap="round"/>
    <path d="M660 176 C 680 200, 700 220, 712 268" stroke-dasharray="1 7" stroke-linecap="round"/>
    <path d="M660 176 C 700 190, 720 195, 748 176" stroke-dasharray="1 7" stroke-linecap="round"/>
  </g>

  <circle cx="660" cy="176" r="34" fill="#40202f" stroke="#fdeef3" stroke-width="3"/>
  <circle cx="660" cy="168" r="7" fill="none" stroke="#fdeef3" stroke-width="2.6"/>
  <path d="M660 176 v7" stroke="#fdeef3" stroke-width="2.6" stroke-linecap="round"/>

  <circle cx="548" cy="140" r="26" fill="#40202f" stroke="#f5b8cd" stroke-width="2.2"/>
  <text x="548" y="145" text-anchor="middle" font-family="-apple-system, 'Segoe UI', Arial, sans-serif" font-size="11.5" font-weight="700" fill="#fdeef3">TRC</text>
  <circle cx="712" cy="138" r="26" fill="#40202f" stroke="#f5b8cd" stroke-width="2.2"/>
  <text x="712" y="143" text-anchor="middle" font-family="-apple-system, 'Segoe UI', Arial, sans-serif" font-size="11.5" font-weight="700" fill="#fdeef3">ERC</text>
  <circle cx="670" cy="280" r="26" fill="#40202f" stroke="#f5b8cd" stroke-width="2.2"/>
  <text x="670" y="285" text-anchor="middle" font-family="-apple-system, 'Segoe UI', Arial, sans-serif" font-size="11.5" font-weight="700" fill="#fdeef3">SOL</text>

  <text x="40" y="352" font-family="-apple-system, 'Segoe UI', Arial, sans-serif" font-size="34" font-weight="800" fill="#fdeef3">One Chain or Many?</text>
  <text x="41" y="388" font-family="-apple-system, 'Segoe UI', Arial, sans-serif" font-size="16" font-weight="600" fill="#f5b8cd">Centralizing saves fees, spreading out cuts risk</text>
</svg>
