<svg viewBox="0 0 860 420" xmlns="http://www.w3.org/2000/svg" role="img" aria-label="Featured cover image for the AI subscription stablecoin consolidation guide">
  <defs>
    <linearGradient id="fbgGrad20en" x1="0" y1="0" x2="860" y2="420" gradientUnits="userSpaceOnUse">
      <stop offset="0" stop-color="#0c1e24"/>
      <stop offset="1" stop-color="#173640"/>
    </linearGradient>
    <radialGradient id="fglow20en" cx="650" cy="210" r="220" gradientUnits="userSpaceOnUse">
      <stop offset="0" stop-color="#4fc3d4" stop-opacity="0.35"/>
      <stop offset="1" stop-color="#4fc3d4" stop-opacity="0"/>
    </radialGradient>
  </defs>
  <rect width="860" height="420" fill="url(#fbgGrad20en)"/>
  <rect width="860" height="420" fill="url(#fglow20en)"/>

  <g fill="#9fdbe4" opacity="0.16">
    <circle cx="90" cy="150" r="2"/><circle cx="150" cy="200" r="2"/><circle cx="230" cy="120" r="2"/>
    <circle cx="480" cy="60" r="2"/><circle cx="540" cy="330" r="2"/><circle cx="620" cy="70" r="2"/>
    <circle cx="790" cy="140" r="2"/><circle cx="810" cy="280" r="2"/><circle cx="380" cy="290" r="2"/>
    <circle cx="700" cy="330" r="2"/><circle cx="260" cy="340" r="2"/><circle cx="440" cy="40" r="2"/>
  </g>

  <g>
    <rect x="40" y="34" width="32" height="32" rx="9" fill="#4fc3d4"/>
    <text x="56" y="55" text-anchor="middle" font-family="-apple-system, 'Segoe UI', Arial, sans-serif" font-size="15" font-weight="800" fill="#0c1e24">AI</text>
    <text x="82" y="55" font-family="-apple-system, 'Segoe UI', Arial, sans-serif" font-size="13.5" font-weight="600" fill="#9fdbe4">AI Access Guide Editorial Team</text>
  </g>
  <text x="40" y="102" font-family="-apple-system, 'Segoe UI', Arial, sans-serif" font-size="13" font-weight="700" letter-spacing="3" fill="#9fdbe4">STABLECOIN CONSOLIDATION</text>

  <g stroke="#9fdbe4" stroke-width="2" fill="none" opacity="0.85">
    <path d="M560 150 C 590 168, 610 188, 636 200" stroke-dasharray="1 7" stroke-linecap="round"/>
    <path d="M700 148 C 675 166, 655 186, 638 200" stroke-dasharray="1 7" stroke-linecap="round"/>
    <path d="M580 260 C 605 244, 622 226, 638 210" stroke-dasharray="1 7" stroke-linecap="round"/>
  </g>
  <path d="M636 200 l10 -3 l-4 10 z" fill="#9fdbe4"/>

  <circle cx="548" cy="140" r="26" fill="#173a44" stroke="#9fdbe4" stroke-width="2.2"/>
  <text x="548" y="145" text-anchor="middle" font-family="-apple-system, 'Segoe UI', Arial, sans-serif" font-size="12" font-weight="700" fill="#eaf7f9">TRC</text>
  <circle cx="712" cy="138" r="26" fill="#173a44" stroke="#9fdbe4" stroke-width="2.2"/>
  <text x="712" y="143" text-anchor="middle" font-family="-apple-system, 'Segoe UI', Arial, sans-serif" font-size="12" font-weight="700" fill="#eaf7f9">ERC</text>
  <circle cx="568" cy="268" r="26" fill="#173a44" stroke="#9fdbe4" stroke-width="2.2"/>
  <text x="568" y="273" text-anchor="middle" font-family="-apple-system, 'Segoe UI', Arial, sans-serif" font-size="12" font-weight="700" fill="#eaf7f9">SOL</text>

  <circle cx="660" cy="210" r="46" fill="#173a44" stroke="#eaf7f9" stroke-width="3"/>
  <path d="M642 210 h26 M658 198 l10 12 l-10 12" fill="none" stroke="#eaf7f9" stroke-width="3" stroke-linecap="round" stroke-linejoin="round"/>
  <text x="660" y="278" text-anchor="middle" font-family="-apple-system, 'Segoe UI', Arial, sans-serif" font-size="12" font-weight="700" letter-spacing="1" fill="#eaf7f9">MAIN CHAIN</text>

  <text x="40" y="358" font-family="-apple-system, 'Segoe UI', Arial, sans-serif" font-size="40" font-weight="800" fill="#eaf7f9">Stablecoin Consolidation</text>
  <text x="41" y="388" font-family="-apple-system, 'Segoe UI', Arial, sans-serif" font-size="16" font-weight="600" fill="#9fdbe4">Turning scattered chains into one subscription reserve</text>
</svg>
