<svg viewBox="0 0 860 420" xmlns="http://www.w3.org/2000/svg" role="img" aria-label="一次性虚拟卡还是长期虚拟卡AI订阅该怎么选置顶封面图">
  <defs>
    <linearGradient id="fbgGrad24" x1="0" y1="0" x2="860" y2="420" gradientUnits="userSpaceOnUse">
      <stop offset="0" stop-color="#0c2019"/>
      <stop offset="1" stop-color="#1c3d30"/>
    </linearGradient>
    <radialGradient id="fglow24" cx="650" cy="210" r="220" gradientUnits="userSpaceOnUse">
      <stop offset="0" stop-color="#34c78e" stop-opacity="0.35"/>
      <stop offset="1" stop-color="#34c78e" stop-opacity="0"/>
    </radialGradient>
  </defs>
  <rect width="860" height="420" fill="url(#fbgGrad24)"/>
  <rect width="860" height="420" fill="url(#fglow24)"/>

  <g fill="#a8ecce" opacity="0.16">
    <circle cx="90" cy="150" r="2"/><circle cx="150" cy="200" r="2"/><circle cx="230" cy="120" r="2"/>
    <circle cx="480" cy="60" r="2"/><circle cx="540" cy="330" r="2"/><circle cx="620" cy="70" r="2"/>
    <circle cx="790" cy="140" r="2"/><circle cx="810" cy="280" r="2"/><circle cx="380" cy="290" r="2"/>
    <circle cx="700" cy="330" r="2"/><circle cx="260" cy="340" r="2"/><circle cx="440" cy="40" r="2"/>
  </g>

  <g>
    <rect x="40" y="34" width="32" height="32" rx="9" fill="#34c78e"/>
    <text x="56" y="55" text-anchor="middle" font-family="-apple-system, 'Segoe UI', 'PingFang SC', 'Microsoft YaHei', sans-serif" font-size="15" font-weight="800" fill="#0c2019">AI</text>
    <text x="82" y="55" font-family="-apple-system, 'Segoe UI', 'PingFang SC', 'Microsoft YaHei', sans-serif" font-size="13.5" font-weight="600" fill="#a8ecce">AI订阅指南编辑部</text>
  </g>
  <text x="40" y="102" font-family="-apple-system, 'Segoe UI', 'PingFang SC', 'Microsoft YaHei', sans-serif" font-size="13" font-weight="700" letter-spacing="3" fill="#a8ecce">虚拟卡类型</text>

  <g stroke="#a8ecce" stroke-width="2" fill="none" opacity="0.85">
    <path d="M660 176 C 610 185, 580 195, 550 155" stroke-dasharray="1 7" stroke-linecap="round"/>
    <path d="M660 176 C 700 200, 720 220, 730 268" stroke-dasharray="1 7" stroke-linecap="round"/>
  </g>

  <rect x="632" y="150" width="56" height="40" rx="9" fill="#173a2e" stroke="#e8fdf3" stroke-width="3"/>
  <line x1="632" y1="164" x2="688" y2="164" stroke="#e8fdf3" stroke-width="2.6"/>
  <circle cx="686" cy="146" r="10" fill="#34c78e"/>
  <text x="686" y="150" text-anchor="middle" font-family="-apple-system, 'Segoe UI', 'PingFang SC', 'Microsoft YaHei', sans-serif" font-size="10" font-weight="800" fill="#0c2019">卡</text>

  <circle cx="548" cy="128" r="28" fill="#173a2e" stroke="#a8ecce" stroke-width="2.2"/>
  <text x="548" y="134" text-anchor="middle" font-family="-apple-system, 'Segoe UI', 'PingFang SC', 'Microsoft YaHei', sans-serif" font-size="15" font-weight="800" fill="#e8fdf3">1×</text>

  <circle cx="732" cy="284" r="28" fill="#173a2e" stroke="#a8ecce" stroke-width="2.2"/>
  <g transform="translate(720,271)" stroke="#e8fdf3" stroke-width="2.4" fill="none" stroke-linecap="round">
    <path d="M2 8 a10 10 0 1 1 3 14"/>
    <path d="M2 4 v9 h9" />
  </g>

  <text x="40" y="352" font-family="-apple-system, 'Segoe UI', 'PingFang SC', 'Microsoft YaHei', sans-serif" font-size="34" font-weight="800" fill="#e8fdf3">一次性还是长期虚拟卡</text>
  <text x="41" y="388" font-family="-apple-system, 'Segoe UI', 'PingFang SC', 'Microsoft YaHei', sans-serif" font-size="16" font-weight="600" fill="#a8ecce">AI 订阅该怎么选卡类型</text>
</svg>
